<svg width="32" height="45" fill="none" xmlns="http://www.w3.org/2000/svg"><path d="M2.471 0C5.35.303 7.103 1.915 9.033 3.568l.243-.594c1.816.238 3.435 1.687 4.557 2.813.521.615.896 1.265 1.276 1.944l.243-.99c2.861 1.06 4.595 3.786 5.849 5.996.227.545.227.545-.016 1.14l-.385-.364C18.095 11 15.086 8.915 11.463 7.335v.396l.545.16c2.018.71 3.702 2.198 5.288 3.409l.7.524c1.897 1.458 3.39 3.079 4.827 4.849.26.319.527.634.796.948 1.961 2.41 1.513 5.378 1.454 8.15l.799-.012c.898.012 1.53.144 2.36.408v.397a37.59 37.59 0 0 0 1.945.595v.396h.486c.916.79 1.304 1.61 1.337 2.689-.052.947-.306 1.632-.85 2.465h-.487l-.183.346c-2.021 2.987-7.573 4.374-11.258 5.461-.41.123-.818.255-1.224.387-1.822.587-3.64.796-5.577.994-2.504.265-4.232.685-6.304 1.931l-.527.191c-.578.267-.68.503-.932.999L3.443 45c-.28-.73-.18-1.203.17-1.922.645-.931 1.592-1.679 2.504-2.44l-2.674-.197v-.397l-.774-.062C1.528 39.814.854 39.518.04 38.855c-.048-.516-.048-.516-.03-1.115l.013-.603.017-.463h.486l.015-.409c.603-1.541 2.528-2.318 4.149-3.083a7.094 7.094 0 0 1 1.912-.473v.397c-.427.25-.427.25-1.003.532-1.06.561-2.003 1.139-2.643 2.045 0 .725.23.975.73 1.586 1.835.19 3.694.015 5.491-.31.612-.09 1.179-.101 1.8-.087l.205-.435c.264-.523.563-1.017.873-1.522 1.152-2.06 1.446-4.325 1.595-6.567.467.074.467.074.972.198.304.41.304.41.486.793v-1.387l-.67-.023c-4.229-.18-9.372-.624-12.622-3.061-.98-.952-1.113-2.047-1.047-3.26.4-1.352 1.615-2.315 2.916-3.172.452-.297.243-.297.608-.396 0-.199.364-.064.364-.199.16 0 .078-.198.244-.198 0-.13.243-.063.243-.198.444-.257.444-.257 1.032-.545.983-.526 1.656-.926 2.127-1.834.015-.677-.094-1.317-.243-1.982l-.137-.62-.106-.372c1.154.628 1.781 1.31 2.187 2.38.192 1.228.189 2.34-.729 3.37a15.502 15.502 0 0 1-2.734 1.796c-.804.462-1.144.888-1.64 1.573h.243l.151.645c.318.706.491.99 1.286 1.356 1.883.668 3.77 1.05 5.818 1.136.522.035.522.035 1.008.233l-.12-.345a4.325 4.325 0 0 1-.147-1.262l.002-.453.006-.467.004-.476c.003-.387.007-.773.012-1.16.94.16 1.467.468 2.187.992l.243.396c0-1.069-.382-1.596-1.185-2.44-1.255-1.342-1.7-2.519-1.822-4.188-.027-.485-.027-.485-.152-.905-.594-.38-.594-.38-1.216-.595v-.793c-.48-.528-.916-.682-1.7-.793v-.396l-.423-.132c-.722-.347-1.08-.765-1.568-1.318l-.511-.567c-.402-.542-.565-.93-.658-1.551h.486l-.49-.524C4.347 5.41 2.472 2.837 2.472 0Z" fill="#312F9C"/><path d="M2.471 0C5.35.303 7.103 1.915 9.033 3.568l.243-.594c1.816.238 3.435 1.687 4.557 2.813.521.615.896 1.265 1.276 1.944l.243-.99c2.861 1.06 4.595 3.786 5.849 5.996.227.545.227.545-.016 1.14l-.385-.364C18.095 11 15.086 8.915 11.463 7.335v.396l.545.16c2.018.71 3.702 2.198 5.288 3.409l.7.524c1.897 1.458 3.39 3.079 4.827 4.849.26.319.527.634.796.948 1.882 2.314 1.513 5.09 1.454 7.754l-.49-.037-.68-.05-.657-.05-.846-.062-.69-.051-.74-.055-1.243-.092.011-.585c.014-.718.022-1.437.029-2.156.003-.31.008-.62.015-.931.009-.447.013-.895.016-1.342l.011-.418c0-.873-.148-1.412-.811-2.101-.503-.354-.503-.354-.973-.595l.158.325c.68 1.576.655 3.108.617 4.755l-.01.832c-.008.673-.021 1.345-.035 2.018l-5.347-.397c-.22-.536-.272-.84-.267-1.39l.002-.455.006-.472.004-.479c.003-.39.007-.779.012-1.168.94.158 1.467.467 2.187.99l.243.397c0-1.069-.382-1.596-1.185-2.44-1.255-1.342-1.7-2.519-1.822-4.188-.027-.485-.027-.485-.152-.905-.594-.38-.594-.38-1.216-.595v-.793c-.48-.528-.916-.682-1.7-.793v-.396l-.423-.132c-.722-.347-1.08-.765-1.568-1.318l-.511-.567c-.402-.542-.565-.93-.658-1.551h.486l-.49-.524C4.347 5.41 2.472 2.837 2.472 0Z" fill="#EF8026"/><path d="M15.352 28.15c.385-.006.77-.01 1.154-.013l.65-.007c.626.02.626.02 1.093.116.823.166 1.666.176 2.51.213l.55.026 1.334.061-.233.467c-.212.44-.37.857-.496 1.317l.395-.297c.721-.372 1.198-.344 2.035-.297-.702 2.012-1.752 3.535-3.888 4.757-.836.26-.836.26-1.458.397l-.244.396h1.702c-1.185 2.035-3.343 3.09-5.848 3.928-.731.205-1.456.31-2.218.409-2.414.336-4.49 1.017-6.345 2.333-.414.269-.414.269-.9.269l-.204.331L3.443 45c-.28-.73-.18-1.203.17-1.922.645-.931 1.592-1.679 2.504-2.44l-2.674-.197v-.397l-.774-.062C1.528 39.814.854 39.518.04 38.855c-.048-.516-.048-.516-.03-1.115l.013-.603.017-.463c.16 0 .121-.198.243-.237.035-.011.292-.259.258-.172.592-1.573 2.528-2.318 4.149-3.083a7.094 7.094 0 0 1 1.912-.473v.397c-.427.25-.427.25-1.003.532-1.06.561-2.003 1.139-2.643 2.045 0 .725.23.975.73 1.586 1.835.19 3.694.015 5.491-.31.612-.09 1.179-.101 1.8-.087l.205-.435c.264-.523.563-1.017.873-1.522 1.152-2.06 1.446-4.325 1.595-6.567.467.074.467.074.972.198.304.41.304.41.486.793l.243-1.19Z" fill="#25207E"/><path d="m18.755 28.348 3.888.198-.486.992c-.087.262-.17.526-.243.792l.395-.297c.721-.372 1.198-.344 2.035-.297-.702 2.012-1.752 3.535-3.888 4.757-.836.26-.836.26-1.458.397l-.244.396h1.702c-1.185 2.035-3.343 3.09-5.848 3.928-.731.205-1.456.31-2.218.409-2.414.336-4.49 1.017-6.345 2.333-.414.269-.414.269-.9.269l-.204.331L3.443 45c-.28-.732-.182-1.205.174-1.924 1.113-1.62 2.749-2.831 4.874-3.436.831-.292 1.538-.712 2.272-1.14.457-.24.457-.24.944-.24l.171-.328c.401-.593.909-1.057 1.454-1.568 1.98-1.907 3.316-3.915 4.482-6.214.308-.603.625-1.202.94-1.802Z" fill="#69AF33"/><path d="m12.679 14.273.729.198v.397l2.43.595v.396l.684.074c.774.124.774.124 1.503.52.894 1.753.819 3.64.775 5.502l-.01.827c-.008.666-.021 1.332-.035 1.998l-5.347-.397c-.22-.536-.272-.84-.267-1.39l.002-.455c.002-.155.005-.311.006-.472l.004-.479c.003-.39.007-.779.012-1.168.94.158 1.467.467 2.187.99l.243.397c0-1.069-.382-1.596-1.185-2.44-1.514-1.621-1.873-3.08-1.731-5.093Z" fill="#7DD156"/><path d="M15.352 28.15h2.43c-1.26 4.11-3.554 7.9-7.777 10.506-.68.248-.68.248-1.215.397l.26-.263c3.077-3.225 4.273-6.416 4.6-10.442.468.074.468.074.973.198.304.41.304.41.486.793l.243-1.19Z" fill="#7AD057"/><path d="m19.727 17.643 1.215.991.422.34c1.712 1.475 3.63 3.916 3.74 5.98l-.03.42a495.413 495.413 0 0 0-1.17-.086l-.658-.05-.846-.062-2.673-.198v-7.335Z" fill="#9DD446"/><path d="M24.088 28.68c1.237.16 2.3.74 3.173 1.452.319.558.319.558.243 1.19-1.253 1.556-4.45 2.61-6.562 3.171l-.486-.198.419-.242c1.855-1.19 2.606-2.578 3.47-4.317l-.935.178-.525.1c-.594.145-1.002.373-1.457.713.77-2.129.77-2.129 2.66-2.047Z" fill="#09112F"/><path d="M17.782 28.348h.73c-.134 1.074-.46 1.942-1.003 2.924l-.232.422c-1.645 2.92-4.258 5.902-7.652 7.607l-.434.226c-.367.185-.748.353-1.13.517l-.486-.198c.434-.604.71-.787 1.52-1.058 3.563-1.196 5.688-4.514 7.16-7.23.415-.842.77-1.696 1.1-2.563.184-.449.184-.449.427-.647Z" fill="#13242F"/><path d="M18.026 16.85c.693.272 1.201.506 1.7.991.263.643.275 1.114.276 1.79v.712c0 .245 0 .491-.002.745l.003.74-.001.714v.652a6.933 6.933 0 0 1-.275 1.586h-.972l-.015-.515c-.02-.639-.04-1.278-.063-1.917l-.025-.825c-.045-1.59-.145-3.124-.627-4.673Z" fill="#0C152C"/><path d="M17.782 28.348h.73c-.135 1.032-.425 1.873-.927 2.837l-.37.729c-.408.602-.59.786-1.377.993.186-.948.577-1.824.972-2.725l.202-.469c.496-1.141.496-1.141.77-1.365Z" fill="#0F1C2D"/><path d="m18.025 37.467.487.198c-1.342 1.124-2.35 1.514-4.162 1.896l-.602.133a28.799 28.799 0 0 1-3.986.548c.243-.396.243-.396.988-.607.638-.139 1.185-.201 1.853-.248 1.95-.173 3.867-.968 5.422-1.92Z" fill="#3F5580"/><path d="m12.193 36.872.486.397c-.784.92-1.663 1.405-2.826 1.957l-.5.25c-.422.203-.856.387-1.292.568l-.486-.198c.51-.71 1.01-.893 1.932-1.178 1.034-.435 1.85-1.145 2.686-1.796Z" fill="#2A4D31"/><path d="M2.471 0c1.533.183 2.41.396 3.403 1.388A43.163 43.163 0 0 1 3.2.595v1.387C2.47 1.386 2.57.828 2.471 0Z" fill="#BD3A26"/><path d="M4.172 42.423c.502.087.502.087.973.198l-.44.409c-.59.645-.903 1.224-1.262 1.97-.267-.648-.224-.994.091-1.623l.204-.418c.191-.338.191-.338.434-.536Z" fill="#367325"/><path d="m19.423 35.163.589.066.444.057-.243.397c-.468.075-.468.075-1.048.111a13.36 13.36 0 0 0-2.112.285c.243-.594.243-.594.672-.834.636-.184 1.034-.162 1.698-.082Z" fill="#588468"/><path d="M21.671 13.48h.486a2734.383 2734.383 0 0 0 .783 1.336c.19.448.19.448-.054 1.043-1.191-1.204-1.191-1.204-1.291-1.97l.076-.409Z" fill="#C08A27"/><path d="M11.463 7.335c1.047.31 1.96.73 2.917 1.19l-.243.396a10.654 10.654 0 0 1-2.674-1.19v-.396Z" fill="#593328"/><path d="m9.52 38.656.728.397c-.353.171-.708.34-1.063.508l-.598.286-.526.197-.486-.198c.53-.682.974-.992 1.944-1.19Z" fill="#3D6840"/><path d="m18.025 37.467.487.198c-.627.525-1.195.98-1.945 1.388l-.729-.198c.638-.578 1.39-.969 2.187-1.388Z" fill="#4755A8"/><path d="M6.603 32.71v.396l-1.945.793-.486-.397a183.792 183.792 0 0 1 1.472-.62c.473-.173.473-.173.959-.173Z" fill="#1B1A65"/><path d="m6.603 7.533.972.397v.594h-.73l-.242.595-.243-.991h.486l-.243-.595Z" fill="#BC5626"/><path d="M9.762 6.542c.896.099 1.362.218 1.944.793-.729.198-.729.198-1.382-.062l-.562-.335v-.396Z" fill="#C86026"/><path d="M13.894 35.088c.197.322.197.322.243.793-.562.644-.562.644-1.215 1.19h-.486c.401-.71.919-1.338 1.458-1.983Z" fill="#1D3531"/><path d="M14.137 8.722c.888.248 1.162.332 1.701.992-.972 0-.972 0-1.397-.273-.304-.322-.304-.322-.304-.719Z" fill="#34232A"/><path d="M2.471 0C5.35.303 7.103 1.915 9.033 3.568l.243-.594c1.816.238 3.435 1.687 4.557 2.813.521.615.896 1.265 1.276 1.944l.243-.99c2.861 1.06 4.595 3.786 5.849 5.996.227.545.227.545-.016 1.14l-.385-.364C18.095 11 15.086 8.915 11.463 7.335v.396l.545.16c2.018.71 3.702 2.198 5.288 3.409l.7.524c1.897 1.458 3.39 3.079 4.827 4.849.26.319.527.634.796.948 1.961 2.41 1.514 4.982 1.454 7.754.264-.005.823.202 1.094.198.85.198 1.236.33 2.066.594.243.1.453.123.607.199.608.297.851.495 1.337.793l.243.198c.084.069.155.122.243.198.916.79 1.304 1.61 1.337 2.689-.052.947-.365 1.573-.85 2.465-.076.138-.122.298-.244.397 0 .099-.18.279-.243.396-2.021 2.988-7.756 3.927-11.44 5.014-.412.123-.819.255-1.225.387-1.822.587-3.64.796-5.577.994-2.504.265-4.232.685-6.304 1.931l-.527.191c-.578.267-.68.503-.932.999L3.443 45c-.28-.73-.18-1.203.17-1.922.645-.931 1.592-1.679 2.504-2.44l-2.674-.197v-.397l-.774-.062C1.528 39.814.854 39.518.04 38.855c-.048-.516-.048-.516-.03-1.115l.013-.603.017-.463h.486l.015-.409c.603-1.541 2.528-2.318 4.149-3.083a7.094 7.094 0 0 1 1.912-.473v.397c-.427.25-.427.25-1.003.532-1.06.561-2.003 1.139-2.643 2.045 0 .725.23.975.73 1.586 1.835.19 3.694.015 5.491-.31.612-.09 1.179-.101 1.8-.087l.205-.435c.264-.523.563-1.017.873-1.522 1.152-2.06 1.446-4.325 1.595-6.567.467.074.467.074.972.198.304.41.304.41.486.793v-1.387l-.67-.023c-4.229-.18-9.372-.624-12.622-3.061-.98-.952-1.113-2.047-1.047-3.26.4-1.352 1.615-2.315 2.916-3.172.452-.297.243-.297.608-.396 0-.199.364-.064.364-.199.16 0 .078-.198.244-.198 0-.13.243-.063.243-.198.444-.257.444-.257 1.032-.545.983-.526 1.656-.926 2.127-1.834.015-.677-.094-1.317-.243-1.982l-.137-.62-.106-.372c1.154.628 1.781 1.31 2.187 2.38.192 1.228.189 2.34-.729 3.37a15.502 15.502 0 0 1-2.734 1.796c-.804.462-1.144.888-1.64 1.573h.243l.151.645c.318.706.491.99 1.286 1.356 1.883.668 3.77 1.05 5.818 1.136.522.035.522.035 1.008.233l-.12-.345a4.325 4.325 0 0 1-.147-1.262l.002-.453.006-.467.004-.476c.003-.387.007-.773.012-1.16.94.16 1.467.468 2.187.992l.243.396c0-1.069-.382-1.596-1.185-2.44-1.255-1.342-1.7-2.519-1.822-4.188-.027-.485-.027-.485-.152-.905-.594-.38-.594-.38-1.216-.595v-.793c-.48-.528-.916-.682-1.7-.793v-.396l-.423-.132c-.722-.347-1.08-.765-1.568-1.318l-.511-.567c-.402-.542-.565-.93-.658-1.551h.486l-.49-.524C4.347 5.41 2.472 2.837 2.472 0Z" fill="#312F9C"/><path d="M2.471 0C5.35.303 7.103 1.915 9.033 3.568l.243-.594c1.816.238 3.435 1.687 4.557 2.813.521.615.896 1.265 1.276 1.944l.243-.99c2.861 1.06 4.595 3.786 5.849 5.996.227.545.227.545-.016 1.14l-.385-.364C18.095 11 15.086 8.915 11.463 7.335v.396l.545.16c2.018.71 3.702 2.198 5.288 3.409l.7.524c1.897 1.458 3.39 3.079 4.827 4.849.26.319.527.634.796.948 1.882 2.314 1.513 5.09 1.454 7.754l-.49-.037-.68-.05-.657-.05-.846-.062-.69-.051-.74-.055-1.243-.092.011-.585c.014-.718.022-1.437.029-2.156.003-.31.008-.62.015-.931.009-.447.013-.895.016-1.342l.011-.418c0-.873-.148-1.412-.811-2.101-.503-.354-.503-.354-.973-.595l.158.325c.68 1.576.655 3.108.617 4.755l-.01.832c-.008.673-.021 1.345-.035 2.018l-5.347-.397c-.22-.536-.272-.84-.267-1.39l.002-.455.006-.472.004-.479c.003-.39.007-.779.012-1.168.94.158 1.467.467 2.187.99l.243.397c0-1.069-.382-1.596-1.185-2.44-1.255-1.342-1.7-2.519-1.822-4.188-.027-.485-.027-.485-.152-.905-.594-.38-.594-.38-1.216-.595v-.793c-.48-.528-.916-.682-1.7-.793v-.396l-.423-.132c-.722-.347-1.08-.765-1.568-1.318l-.511-.567c-.402-.542-.565-.93-.658-1.551h.486l-.49-.524C4.347 5.41 2.472 2.837 2.472 0Z" fill="#EF8026"/><path d="M15.352 28.15c.385-.006.77-.01 1.154-.013l.65-.007c.626.02.626.02 1.093.116.823.166 1.666.176 2.51.213l.55.026 1.334.061-.233.467c-.212.44-.37.857-.496 1.317l.395-.297c.721-.372 1.198-.344 2.035-.297-.702 2.012-1.752 3.535-3.888 4.757-.836.26-.836.26-1.458.397l-.244.396h1.702c-1.185 2.035-3.343 3.09-5.848 3.928-.731.205-1.456.31-2.218.409-2.414.336-4.49 1.017-6.345 2.333-.414.269-.414.269-.9.269l-.204.331L3.443 45c-.28-.73-.18-1.203.17-1.922.645-.931 1.592-1.679 2.504-2.44l-2.674-.197c-.204-.016-.352-.08-.607-.1-.256-.02-.709-.078-.972-.099A2.27 2.27 0 0 1 .04 38.855c-.048-.516-.048-.516-.03-1.115l.013-.603.017-.463c.121-.198.121-.198.121-.297 0-.1.098-.29.064-.203.592-1.574 2.844-2.227 4.465-2.992a7.094 7.094 0 0 1 1.912-.473v.397c-.427.25-.427.25-1.003.532-1.06.561-2.003 1.139-2.643 2.045 0 .725.23.975.73 1.586 1.835.19 3.694.015 5.491-.31.612-.09 1.179-.101 1.8-.087l.205-.435c.264-.523.563-1.017.873-1.522 1.152-2.06 1.446-4.325 1.595-6.567.467.074.467.074.972.198.304.41.304.41.486.793l.243-1.19Z" fill="#25207E"/><path d="m18.755 28.348 3.888.198-.486.992c-.087.262-.17.526-.243.792l.395-.297c.721-.372 1.198-.344 2.035-.297-.702 2.012-1.752 3.535-3.888 4.757-.836.26-.836.26-1.458.397l-.244.396h1.702c-1.185 2.035-3.343 3.09-5.848 3.928-.731.205-1.456.31-2.218.409-2.414.336-4.49 1.017-6.345 2.333-.414.269-.414.269-.9.269l-.204.331L3.443 45c-.28-.732-.182-1.205.174-1.924 1.113-1.62 2.749-2.831 4.874-3.436.831-.292 1.538-.712 2.272-1.14.457-.24.457-.24.944-.24l.171-.328c.401-.593.909-1.057 1.454-1.568 1.98-1.907 3.316-3.915 4.482-6.214.308-.603.625-1.202.94-1.802Z" fill="#69AF33"/><path d="m12.679 14.273.729.198v.397l2.43.595v.396l.684.074c.774.124.774.124 1.503.52.894 1.753.819 3.64.775 5.502l-.01.827c-.008.666-.021 1.332-.035 1.998l-5.347-.397c-.22-.536-.272-.84-.267-1.39l.002-.455c.002-.155.005-.311.006-.472l.004-.479c.003-.39.007-.779.012-1.168.94.158 1.467.467 2.187.99l.243.397c0-1.069-.382-1.596-1.185-2.44-1.514-1.621-1.873-3.08-1.731-5.093Z" fill="#7DD156"/><path d="M15.352 28.15h2.43c-1.26 4.11-3.554 7.9-7.777 10.506-.68.248-.68.248-1.215.397l.26-.263c3.077-3.225 4.273-6.416 4.6-10.442.468.074.468.074.973.198.304.41.304.41.486.793l.243-1.19Z" fill="#7AD057"/><path d="m19.727 17.643 1.215.991.422.34c1.712 1.475 3.63 3.916 3.74 5.98l-.03.42a495.413 495.413 0 0 0-1.17-.086l-.658-.05-.846-.062-2.673-.198v-7.335Z" fill="#5A962C"/><path d="m18.755 28.348 3.888.198-.486.992c-.087.262-.17.526-.243.792l.395-.297c.721-.372 1.198-.344 2.035-.297-.702 2.012-1.752 3.535-3.888 4.757-.836.26-.836.26-1.458.397l-.244.396h1.702c-1.185 2.035-3.343 3.09-5.848 3.928-.731.205-1.456.31-2.218.409-2.414.336-4.49 1.017-6.345 2.333-.414.269-.135.302-.621.302-.067.109-.157.216-.226.328-.904.658-1.356 1.48-1.755 2.414-.28-.732-.182-1.205.174-1.924 1.113-1.62 2.749-2.831 4.874-3.436.831-.292 1.538-.712 2.272-1.14.457-.24.457-.24.944-.24l.171-.328c.401-.593.909-1.057 1.454-1.568 1.98-1.907 3.316-3.915 4.482-6.214.308-.603.625-1.202.94-1.802Z" fill="#69AF33"/><path d="M17.782 28.348h.73c-.134 1.074-.46 1.942-1.003 2.924l-.232.422c-1.645 2.92-4.258 5.902-7.652 7.607l-.434.226c-.367.185-.748.353-1.13.517l-.486-.198c.434-.604.71-.787 1.52-1.058 3.563-1.196 5.688-4.514 7.16-7.23.415-.842.77-1.696 1.1-2.563.184-.449.184-.449.427-.647Z" fill="#13242F"/><path d="M18.026 16.85c.693.272 1.201.506 1.7.991.263.643.275 1.114.276 1.79v.712c0 .245 0 .491-.002.745l.003.74-.001.714v.652a6.933 6.933 0 0 1-.275 1.586h-.972l-.015-.515c-.02-.639-.04-1.278-.063-1.917l-.025-.825c-.045-1.59-.145-3.124-.627-4.673Z" fill="#0C152C"/><path d="M17.782 28.348h.73c-.135 1.032-.425 1.873-.927 2.837l-.37.729c-.408.602-.59.786-1.377.993.186-.948.577-1.824.972-2.725l.202-.469c.496-1.141.496-1.141.77-1.365Z" fill="#0F1C2D"/><path d="m12.193 36.872.486.397c-.784.92-1.663 1.405-2.826 1.957l-.5.25c-.422.203-.856.387-1.292.568l-.486-.198c.51-.71 1.01-.893 1.932-1.178 1.034-.435 1.85-1.145 2.686-1.796Z" fill="#2A4D31"/><path d="M2.471 0c1.533.183 2.41.396 3.403 1.388A43.163 43.163 0 0 1 3.2.595v1.387C2.47 1.386 2.57.828 2.471 0Z" fill="#BD3A26"/><path d="M4.172 42.423c.502.087.502.087.973.198l-.44.409c-.59.645-.903 1.224-1.262 1.97-.267-.648-.224-.994.091-1.623l.204-.418c.191-.338.191-.338.434-.536Z" fill="#367325"/><path d="M21.671 13.48h.486a2734.383 2734.383 0 0 0 .783 1.336c.19.448.19.448-.054 1.043-1.191-1.204-1.191-1.204-1.291-1.97l.076-.409Z" fill="#C08A27"/><path d="M11.463 7.335c1.047.31 1.96.73 2.917 1.19l-.243.396a10.654 10.654 0 0 1-2.674-1.19v-.396Z" fill="#593328"/><path d="m9.52 38.656.728.397c-.353.171-.708.34-1.063.508l-.598.286-.526.197-.486-.198c.53-.682.974-.992 1.944-1.19Z" fill="#3D6840"/><path d="M6.603 32.71v.396l-1.945.793-.486-.397a183.792 183.792 0 0 1 1.472-.62c.473-.173.473-.173.959-.173Z" fill="#1B1A65"/><path d="m6.603 7.533.972.397v.594h-.73l-.242.595-.243-.991h.486l-.243-.595Z" fill="#BC5626"/><path d="M9.762 6.542c.896.099 1.362.218 1.944.793-.729.198-.729.198-1.382-.062l-.562-.335v-.396Z" fill="#C86026"/><path d="M13.894 35.088c.197.322.197.322.243.793-.562.644-.562.644-1.215 1.19h-.486c.401-.71.919-1.338 1.458-1.983Z" fill="#1D3531"/><path d="M14.137 8.722c.888.248 1.162.332 1.701.992-.972 0-.972 0-1.397-.273-.304-.322-.304-.322-.304-.719Z" fill="#34232A"/></svg>