<svg width="214" height="48" fill="none" xmlns="http://www.w3.org/2000/svg"><g clip-path="url(#a)"><path d="M43.482 21.164c-.486 0-.896-.168-1.232-.504a1.676 1.676 0 0 1-.504-1.232c0-.485.168-.896.504-1.232a1.676 1.676 0 0 1 1.232-.504c.466 0 .858.168 1.176.504.336.336.504.747.504 1.232s-.168.896-.504 1.232c-.318.336-.71.504-1.176.504zm1.232 2.492V39h-2.548V23.656h2.548zm3.39 7.616c0-1.568.318-2.94.952-4.116.635-1.195 1.503-2.119 2.604-2.772 1.12-.653 2.362-.98 3.724-.98 1.344 0 2.511.29 3.5.868.99.579 1.727 1.307 2.212 2.184v-2.8h2.576V39h-2.576v-2.856c-.504.896-1.26 1.643-2.268 2.24-.989.579-2.146.868-3.472.868-1.362 0-2.594-.336-3.696-1.008-1.1-.672-1.969-1.615-2.604-2.828-.634-1.213-.952-2.595-.952-4.144zm12.992.028c0-1.157-.233-2.165-.7-3.024-.466-.859-1.1-1.512-1.904-1.96a4.995 4.995 0 0 0-2.604-.7c-.952 0-1.82.224-2.604.672-.784.448-1.409 1.101-1.876 1.96-.466.859-.7 1.867-.7 3.024 0 1.176.234 2.203.7 3.08.467.859 1.092 1.521 1.876 1.988a5.155 5.155 0 0 0 2.604.672c.952 0 1.82-.224 2.604-.672.803-.467 1.438-1.13 1.904-1.988.467-.877.7-1.895.7-3.052zm25.334-7.924c1.195 0 2.259.252 3.192.756.934.485 1.67 1.223 2.212 2.212.542.99.812 2.193.812 3.612V39h-2.52v-8.68c0-1.53-.382-2.697-1.148-3.5-.746-.821-1.764-1.232-3.052-1.232-1.325 0-2.38.43-3.164 1.288-.784.84-1.176 2.063-1.176 3.668V39h-2.52v-8.68c0-1.53-.382-2.697-1.148-3.5-.746-.821-1.764-1.232-3.052-1.232-1.325 0-2.38.43-3.164 1.288-.784.84-1.176 2.063-1.176 3.668V39h-2.548V23.656h2.548v2.212a5.058 5.058 0 0 1 2.016-1.848c.859-.43 1.802-.644 2.828-.644 1.288 0 2.427.29 3.416.868.99.579 1.727 1.428 2.212 2.548a5.032 5.032 0 0 1 2.128-2.52c.99-.597 2.09-.896 3.304-.896zm15.828 15.876c-1.176 0-2.231-.196-3.164-.588-.933-.41-1.67-.97-2.212-1.68a4.541 4.541 0 0 1-.896-2.492h2.632c.075.765.43 1.39 1.064 1.876.653.485 1.503.728 2.548.728.971 0 1.736-.215 2.296-.644.56-.43.84-.97.84-1.624 0-.672-.299-1.167-.896-1.484-.597-.336-1.521-.663-2.772-.98-1.139-.299-2.072-.597-2.8-.896a5.318 5.318 0 0 1-1.848-1.372c-.504-.616-.756-1.419-.756-2.408 0-.784.233-1.503.7-2.156.467-.653 1.13-1.167 1.988-1.54.859-.392 1.839-.588 2.94-.588 1.699 0 3.071.43 4.116 1.288 1.045.859 1.605 2.035 1.68 3.528h-2.548c-.056-.803-.383-1.447-.98-1.932-.579-.485-1.363-.728-2.352-.728-.915 0-1.643.196-2.184.588-.541.392-.812.905-.812 1.54 0 .504.159.924.476 1.26.336.317.747.579 1.232.784.504.187 1.195.401 2.072.644 1.101.299 1.997.597 2.688.896.691.28 1.279.71 1.764 1.288.504.579.765 1.335.784 2.268a3.88 3.88 0 0 1-.7 2.268c-.467.672-1.129 1.204-1.988 1.596-.84.373-1.811.56-2.912.56zm22.805-15.596V39h-2.548v-2.268c-.486.784-1.167 1.4-2.044 1.848-.859.43-1.811.644-2.856.644-1.195 0-2.268-.243-3.22-.728-.952-.504-1.708-1.25-2.268-2.24-.542-.99-.812-2.193-.812-3.612v-8.988h2.52v8.652c0 1.512.382 2.679 1.148 3.5.765.803 1.81 1.204 3.136 1.204 1.362 0 2.436-.42 3.22-1.26.784-.84 1.176-2.063 1.176-3.668v-8.428h2.548zM137.933 39l-6.02-6.776V39h-2.548V18.28h2.548v12.18l5.908-6.804h3.556l-7.224 7.644 7.252 7.7h-3.472zm12.534.252c-1.437 0-2.744-.327-3.92-.98-1.157-.653-2.072-1.577-2.744-2.772-.653-1.213-.98-2.613-.98-4.2 0-1.568.336-2.95 1.008-4.144.691-1.213 1.624-2.137 2.8-2.772 1.176-.653 2.492-.98 3.948-.98s2.772.327 3.948.98c1.176.635 2.1 1.55 2.772 2.744.691 1.195 1.036 2.585 1.036 4.172 0 1.587-.355 2.987-1.064 4.2a7.208 7.208 0 0 1-2.828 2.772c-1.195.653-2.52.98-3.976.98zm0-2.24a5.38 5.38 0 0 0 2.576-.644c.803-.43 1.447-1.073 1.932-1.932.504-.859.756-1.904.756-3.136 0-1.232-.243-2.277-.728-3.136s-1.12-1.493-1.904-1.904a5.22 5.22 0 0 0-2.548-.644c-.933 0-1.792.215-2.576.644-.765.41-1.381 1.045-1.848 1.904-.467.859-.7 1.904-.7 3.136 0 1.25.224 2.305.672 3.164.467.859 1.083 1.503 1.848 1.932.765.41 1.605.616 2.52.616zm16.65 2.24c-1.176 0-2.23-.196-3.164-.588-.933-.41-1.67-.97-2.212-1.68a4.544 4.544 0 0 1-.896-2.492h2.632c.075.765.43 1.39 1.064 1.876.654.485 1.503.728 2.548.728.971 0 1.736-.215 2.296-.644.56-.43.84-.97.84-1.624 0-.672-.298-1.167-.896-1.484-.597-.336-1.521-.663-2.772-.98-1.138-.299-2.072-.597-2.8-.896a5.323 5.323 0 0 1-1.848-1.372c-.504-.616-.756-1.419-.756-2.408 0-.784.234-1.503.7-2.156.467-.653 1.13-1.167 1.988-1.54.859-.392 1.839-.588 2.94-.588 1.699 0 3.071.43 4.116 1.288 1.046.859 1.606 2.035 1.68 3.528h-2.548c-.056-.803-.382-1.447-.98-1.932-.578-.485-1.362-.728-2.352-.728-.914 0-1.642.196-2.184.588-.541.392-.812.905-.812 1.54 0 .504.159.924.476 1.26.336.317.747.579 1.232.784.504.187 1.195.401 2.072.644 1.102.299 1.998.597 2.688.896.691.28 1.279.71 1.764 1.288.504.579.766 1.335.784 2.268a3.88 3.88 0 0 1-.7 2.268c-.466.672-1.129 1.204-1.988 1.596-.84.373-1.81.56-2.912.56zm8.245-7.98c0-1.568.318-2.94.952-4.116.635-1.195 1.503-2.119 2.604-2.772 1.12-.653 2.362-.98 3.724-.98 1.344 0 2.511.29 3.5.868.99.579 1.727 1.307 2.212 2.184v-2.8h2.576V39h-2.576v-2.856c-.504.896-1.26 1.643-2.268 2.24-.989.579-2.146.868-3.472.868-1.362 0-2.594-.336-3.696-1.008-1.101-.672-1.969-1.615-2.604-2.828-.634-1.213-.952-2.595-.952-4.144zm12.992.028c0-1.157-.233-2.165-.7-3.024-.466-.859-1.101-1.512-1.904-1.96a4.995 4.995 0 0 0-2.604-.7c-.952 0-1.82.224-2.604.672-.784.448-1.409 1.101-1.876 1.96-.466.859-.7 1.867-.7 3.024 0 1.176.234 2.203.7 3.08.467.859 1.092 1.521 1.876 1.988a5.155 5.155 0 0 0 2.604.672c.952 0 1.82-.224 2.604-.672.803-.467 1.438-1.13 1.904-1.988.467-.877.7-1.895.7-3.052zm14.358-7.924c1.867 0 3.379.57 4.536 1.708 1.157 1.12 1.736 2.744 1.736 4.872V39h-2.52v-8.68c0-1.53-.383-2.697-1.148-3.5-.765-.821-1.811-1.232-3.136-1.232-1.344 0-2.417.42-3.22 1.26-.784.84-1.176 2.063-1.176 3.668V39h-2.548V23.656h2.548v2.184a5.077 5.077 0 0 1 2.044-1.82c.877-.43 1.839-.644 2.884-.644z" fill="url(#b)"/><path d="M7.471 2c2.878.296 4.632 1.872 6.562 3.489l.243-.582c1.816.234 3.435 1.65 4.557 2.751.521.602.896 1.237 1.276 1.901l.243-.969c2.861 1.037 4.595 3.703 5.849 5.864.227.533.227.533-.016 1.114l-.385-.356c-2.705-2.456-5.714-4.495-9.337-6.04v.387l.544.157c2.019.695 3.703 2.15 5.29 3.333l.699.512c1.897 1.425 3.39 3.01 4.827 4.741.26.312.527.62.796.927 1.961 2.357 1.513 5.259 1.454 7.97l.799-.013c.898.012 1.53.142 2.36.4v.388a38.18 38.18 0 0 0 1.945.581v.388h.486c.916.772 1.304 1.573 1.337 2.629-.052.926-.306 1.596-.85 2.41h-.487l-.183.338c-2.021 2.921-7.573 4.277-11.258 5.34-.41.12-.818.25-1.224.379-1.822.574-3.64.777-5.577.971-2.504.26-4.232.67-6.304 1.889l-.527.187c-.578.26-.68.49-.932.976L8.443 46c-.28-.715-.18-1.176.17-1.88.645-.91 1.593-1.64 2.504-2.384l-2.674-.194v-.388l-.774-.06c-1.141-.164-1.815-.454-2.628-1.103-.048-.504-.048-.504-.03-1.09l.013-.59.017-.452h.486l.015-.4c.603-1.507 2.528-2.266 4.149-3.015a7.227 7.227 0 0 1 1.912-.462v.388c-.428.245-.428.245-1.003.521-1.06.548-2.003 1.113-2.643 1.999 0 .71.23.954.73 1.55 1.835.186 3.694.016 5.491-.302.612-.09 1.179-.1 1.8-.085l.205-.426c.264-.51.563-.994.873-1.488 1.152-2.015 1.446-4.23 1.595-6.42.467.071.467.071.972.193.304.4.304.4.486.775V29.33l-.67-.022c-4.229-.176-9.372-.61-12.622-2.993-.98-.93-1.113-2.001-1.047-3.187.4-1.322 1.615-2.263 2.916-3.102.452-.29.243-.29.608-.387 0-.194.364-.062.364-.194.16 0 .078-.194.244-.194 0-.128.243-.062.243-.194.444-.251.444-.251 1.032-.533.983-.514 1.656-.905 2.127-1.793.015-.662-.094-1.288-.243-1.938l-.137-.606-.106-.363c1.154.613 1.781 1.28 2.187 2.326.192 1.2.189 2.289-.729 3.295a15.538 15.538 0 0 1-2.734 1.756c-.804.453-1.144.869-1.64 1.54h.243l.151.629c.318.691.491.968 1.286 1.327a19.944 19.944 0 0 0 5.819 1.11c.52.034.52.034 1.007.228l-.12-.338a4.14 4.14 0 0 1-.147-1.234l.002-.443.006-.456.004-.466c.003-.378.007-.755.012-1.133.94.155 1.467.457 2.187.969l.243.388c0-1.046-.382-1.561-1.185-2.387-1.256-1.311-1.7-2.462-1.823-4.095-.026-.474-.026-.474-.151-.884-.594-.372-.594-.372-1.216-.582V14.6c-.48-.517-.916-.667-1.7-.775v-.388l-.423-.13c-.721-.338-1.08-.747-1.568-1.287l-.511-.555c-.402-.53-.565-.909-.658-1.517h.486l-.49-.512C9.347 7.29 7.472 4.774 7.472 2z" fill="#312F9C"/><path d="M7.471 2c2.878.296 4.632 1.872 6.562 3.489l.243-.582c1.816.234 3.435 1.65 4.557 2.751.521.602.896 1.237 1.276 1.901l.243-.969c2.861 1.037 4.595 3.703 5.849 5.864.227.533.227.533-.016 1.114l-.385-.356c-2.705-2.456-5.714-4.495-9.337-6.04v.387l.544.157c2.019.695 3.703 2.15 5.29 3.333l.699.512c1.897 1.425 3.39 3.01 4.827 4.741.26.312.527.62.796.927 1.882 2.263 1.513 4.978 1.454 7.582l-.49-.036-.68-.05-.657-.047-.846-.061-.69-.05-.74-.054-1.243-.09.011-.572c.014-.703.022-1.405.029-2.108.003-.303.008-.607.015-.91.009-.438.013-.875.016-1.313l.011-.409c0-.853-.148-1.38-.811-2.054-.503-.345-.503-.345-.973-.581l.158.317c.68 1.541.655 3.04.617 4.65l-.01.814c-.008.657-.021 1.315-.035 1.972l-5.347-.388c-.22-.524-.272-.821-.267-1.359l.002-.444.006-.462.004-.468.012-1.143c.94.155 1.467.457 2.187.969l.243.388c0-1.046-.382-1.561-1.185-2.387-1.256-1.311-1.7-2.462-1.823-4.095-.026-.474-.026-.474-.151-.884-.594-.372-.594-.372-1.216-.582V14.6c-.48-.517-.916-.667-1.7-.775v-.388l-.423-.13c-.721-.338-1.08-.747-1.568-1.287l-.511-.555c-.402-.53-.565-.909-.658-1.517h.486l-.49-.512C9.347 7.29 7.472 4.774 7.472 2z" fill="#EF8026"/><path d="m20.352 29.524 1.154-.012.65-.007c.626.02.626.02 1.093.114.823.162 1.666.172 2.51.208l.55.025 1.334.06-.233.456c-.212.43-.37.838-.496 1.288l.395-.29c.721-.364 1.198-.337 2.035-.291-.702 1.967-1.752 3.457-3.888 4.652-.836.254-.836.254-1.458.388l-.244.387h1.702c-1.185 1.99-3.343 3.02-5.848 3.84-.731.2-1.456.303-2.218.4-2.414.329-4.49.995-6.345 2.282-.414.262-.414.262-.9.262l-.204.324L8.443 46c-.28-.715-.18-1.176.17-1.88.645-.91 1.593-1.64 2.504-2.384l-2.674-.194v-.388l-.774-.06c-1.141-.164-1.815-.454-2.628-1.103-.048-.504-.048-.504-.03-1.09l.013-.59.017-.452c.16 0 .121-.194.243-.232.035-.01.292-.253.258-.168.592-1.538 2.528-2.266 4.149-3.015a7.227 7.227 0 0 1 1.912-.462v.388c-.428.245-.428.245-1.003.521-1.06.548-2.003 1.113-2.643 1.999 0 .71.23.954.73 1.55 1.835.186 3.694.016 5.491-.302.612-.09 1.179-.1 1.8-.085l.205-.426c.264-.51.563-.994.873-1.488 1.152-2.015 1.446-4.23 1.595-6.42.467.071.467.071.972.193.304.4.304.4.486.775l.243-1.163z" fill="#25207E"/><path d="m23.755 29.718 3.888.194-.486.97c-.087.256-.17.514-.243.774l.395-.29c.721-.364 1.198-.337 2.035-.291-.702 1.967-1.752 3.457-3.888 4.652-.836.254-.836.254-1.458.388l-.244.387h1.702c-1.185 1.99-3.343 3.02-5.848 3.84-.731.2-1.456.303-2.218.4-2.414.329-4.49.995-6.345 2.282-.414.262-.414.262-.9.262l-.204.324L8.443 46c-.28-.716-.182-1.178.174-1.882 1.113-1.584 2.749-2.768 4.874-3.359.831-.286 1.538-.696 2.272-1.115.458-.234.458-.234.943-.234l.172-.32c.401-.58.909-1.034 1.454-1.534 1.98-1.865 3.316-3.828 4.482-6.076.308-.59.625-1.175.94-1.762z" fill="#69AF33"/><path d="m17.679 15.956.729.194v.388l2.43.58v.389l.684.072c.774.121.774.121 1.503.51.894 1.713.819 3.557.775 5.378l-.01.809c-.008.65-.021 1.302-.035 1.953l-5.347-.388c-.22-.524-.272-.821-.267-1.359l.002-.444c.002-.153.005-.305.006-.462l.004-.468.012-1.143c.94.155 1.467.457 2.187.969l.243.388c0-1.046-.382-1.561-1.185-2.387-1.514-1.585-1.873-3.012-1.731-4.979z" fill="#7DD156"/><path d="M20.352 29.524h2.43c-1.26 4.019-3.554 7.724-7.777 10.273-.68.243-.68.243-1.215.388l.26-.257c3.077-3.153 4.273-6.273 4.6-10.21.468.072.468.072.973.194.304.4.304.4.486.775l.243-1.163z" fill="#7AD057"/><path d="m24.727 19.251 1.215.97.422.331c1.712 1.443 3.63 3.83 3.74 5.847l-.03.412-.491-.036-.68-.05-.657-.047-.846-.061-2.673-.194V19.25z" fill="#9DD446"/><path d="M29.088 30.043c1.237.156 2.3.724 3.173 1.42.319.545.319.545.243 1.163-1.252 1.522-4.45 2.551-6.562 3.1l-.486-.193.419-.237c1.855-1.164 2.606-2.52 3.47-4.221l-.935.174-.525.098c-.594.142-1.002.364-1.457.697.77-2.081.77-2.081 2.66-2.001z" fill="#09112F"/><path d="M22.782 29.718h.73c-.134 1.05-.46 1.9-1.003 2.86l-.232.411c-1.645 2.856-4.258 5.771-7.652 7.438l-.434.221c-.367.182-.748.345-1.13.506l-.486-.194c.434-.59.71-.769 1.52-1.034 3.563-1.17 5.688-4.413 7.16-7.069.415-.824.77-1.658 1.1-2.506.184-.44.184-.44.427-.633z" fill="#13242F"/><path d="M23.026 18.476c.693.265 1.201.495 1.7.969.263.628.275 1.088.276 1.749v.697c0 .24 0 .48-.002.728l.003.724-.001.698v.638a6.643 6.643 0 0 1-.275 1.55h-.972l-.015-.503c-.02-.625-.04-1.25-.063-1.875l-.025-.806c-.045-1.556-.145-3.055-.627-4.57z" fill="#0C152C"/><path d="M22.782 29.718h.73c-.135 1.01-.425 1.831-.927 2.774l-.37.713c-.408.588-.59.769-1.377.971.186-.928.577-1.784.972-2.665l.202-.458c.496-1.116.496-1.116.77-1.335z" fill="#0F1C2D"/><path d="m23.025 38.634.487.194c-1.342 1.1-2.35 1.48-4.163 1.854l-.601.13a29.418 29.418 0 0 1-3.986.536c.243-.388.243-.388.988-.594a12.413 12.413 0 0 1 1.853-.242c1.95-.17 3.866-.947 5.422-1.878z" fill="#3F5580"/><path d="m17.193 38.053.486.388c-.784.9-1.663 1.373-2.826 1.914l-.5.244c-.422.198-.856.379-1.292.555l-.486-.194c.51-.694 1.01-.872 1.932-1.151 1.034-.426 1.85-1.12 2.686-1.756z" fill="#2A4D31"/><path d="M7.471 2c1.533.178 2.41.387 3.403 1.357A43.906 43.906 0 0 1 8.2 2.58v1.357C7.47 3.356 7.57 2.81 7.471 2z" fill="#BD3A26"/><path d="M9.172 43.48c.502.085.502.085.973.194l-.44.4c-.59.63-.903 1.197-1.262 1.926-.267-.633-.224-.972.091-1.587l.204-.408c.191-.331.191-.331.434-.525z" fill="#367325"/><path d="m24.423 36.381.589.065.444.056-.243.388c-.468.073-.468.073-1.048.109-.73.047-1.405.122-2.112.279.243-.582.243-.582.672-.817.636-.179 1.034-.158 1.698-.08z" fill="#588468"/><path d="M26.671 15.18h.486c.17.278.336.557.501.837l.282.47c.19.438.19.438-.054 1.02-1.191-1.178-1.191-1.178-1.291-1.927l.076-.4z" fill="#C08A27"/><path d="M16.463 9.172c1.047.303 1.96.714 2.917 1.163l-.243.387a10.78 10.78 0 0 1-2.674-1.163v-.387z" fill="#593328"/><path d="m14.52 39.797.728.388c-.353.167-.707.333-1.063.497l-.598.28-.526.192-.486-.194c.53-.667.974-.97 1.944-1.163z" fill="#3D6840"/><path d="m23.025 38.634.487.194c-.627.513-1.195.959-1.945 1.357l-.729-.194c.638-.565 1.39-.947 2.187-1.357z" fill="#4755A8"/><path d="M11.603 33.982v.388l-1.945.775-.486-.387c.314-.13.628-.26.942-.388l.53-.218c.473-.17.473-.17.959-.17z" fill="#1B1A65"/><path d="m11.603 9.366.972.387v.582h-.73l-.242.581-.243-.969h.486l-.243-.581z" fill="#BC5626"/><path d="M14.762 8.397c.896.096 1.362.213 1.944.775-.729.194-.729.194-1.382-.06l-.562-.328v-.387z" fill="#C86026"/><path d="M18.894 36.308c.197.315.197.315.243.776-.562.63-.562.63-1.215 1.163h-.486c.401-.694.919-1.308 1.458-1.939z" fill="#1D3531"/><path d="M19.137 10.529c.888.242 1.162.323 1.701.969-.972 0-.972 0-1.397-.267-.304-.315-.304-.315-.304-.702z" fill="#34232A"/><path d="M7.471 2c2.878.296 4.632 1.872 6.562 3.489l.243-.582c1.816.234 3.435 1.65 4.557 2.751.521.602.896 1.237 1.276 1.901l.243-.969c2.861 1.037 4.595 3.703 5.849 5.864.227.533.227.533-.016 1.114l-.385-.356c-2.705-2.456-5.714-4.495-9.337-6.04v.387l.544.157c2.019.695 3.703 2.15 5.29 3.333l.699.512c1.897 1.425 3.39 3.01 4.827 4.741.26.312.527.62.796.927 1.961 2.357 1.514 4.871 1.454 7.582.264-.004.823.198 1.094.193.85.194 1.236.323 2.066.582.243.097.453.12.608.194.607.29.85.484 1.336.775l.243.194c.084.067.155.12.243.194.916.772 1.304 1.573 1.337 2.629-.052.926-.365 1.538-.85 2.41-.076.135-.122.291-.244.388 0 .097-.18.273-.243.388-2.021 2.92-7.756 3.839-11.44 4.902-.412.12-.819.25-1.225.379-1.822.574-3.64.777-5.577.971-2.504.26-4.232.67-6.304 1.889l-.527.187c-.578.26-.68.49-.932.976L8.443 46c-.28-.715-.18-1.176.17-1.88.645-.91 1.593-1.64 2.504-2.384l-2.674-.194v-.388l-.774-.06c-1.141-.164-1.815-.454-2.628-1.103-.048-.504-.048-.504-.03-1.09l.013-.59.017-.452h.486l.015-.4c.603-1.507 2.528-2.266 4.149-3.015a7.227 7.227 0 0 1 1.912-.462v.388c-.428.245-.428.245-1.003.521-1.06.548-2.003 1.113-2.643 1.999 0 .71.23.954.73 1.55 1.835.186 3.694.016 5.491-.302.612-.09 1.179-.1 1.8-.085l.205-.426c.264-.51.563-.994.873-1.488 1.152-2.015 1.446-4.23 1.595-6.42.467.071.467.071.972.193.304.4.304.4.486.775V29.33l-.67-.022c-4.229-.176-9.372-.61-12.622-2.993-.98-.93-1.113-2.001-1.047-3.187.4-1.322 1.615-2.263 2.916-3.102.452-.29.243-.29.608-.387 0-.194.364-.062.364-.194.16 0 .078-.194.244-.194 0-.128.243-.062.243-.194.444-.251.444-.251 1.032-.533.983-.514 1.656-.905 2.127-1.793.015-.662-.094-1.288-.243-1.938l-.137-.606-.106-.363c1.154.613 1.781 1.28 2.187 2.326.192 1.2.189 2.289-.729 3.295a15.538 15.538 0 0 1-2.734 1.756c-.804.453-1.144.869-1.64 1.54h.243l.151.629c.318.691.491.968 1.286 1.327a19.944 19.944 0 0 0 5.819 1.11c.52.034.52.034 1.007.228l-.12-.338a4.14 4.14 0 0 1-.147-1.234l.002-.443.006-.456.004-.466c.003-.378.007-.755.012-1.133.94.155 1.467.457 2.187.969l.243.388c0-1.046-.382-1.561-1.185-2.387-1.256-1.311-1.7-2.462-1.823-4.095-.026-.474-.026-.474-.151-.884-.594-.372-.594-.372-1.216-.582V14.6c-.48-.517-.916-.667-1.7-.775v-.388l-.423-.13c-.721-.338-1.08-.747-1.568-1.287l-.511-.555c-.402-.53-.565-.909-.658-1.517h.486l-.49-.512C9.347 7.29 7.472 4.774 7.472 2z" fill="#312F9C"/><path d="M7.471 2c2.878.296 4.632 1.872 6.562 3.489l.243-.582c1.816.234 3.435 1.65 4.557 2.751.521.602.896 1.237 1.276 1.901l.243-.969c2.861 1.037 4.595 3.703 5.849 5.864.227.533.227.533-.016 1.114l-.385-.356c-2.705-2.456-5.714-4.495-9.337-6.04v.387l.544.157c2.019.695 3.703 2.15 5.29 3.333l.699.512c1.897 1.425 3.39 3.01 4.827 4.741.26.312.527.62.796.927 1.882 2.263 1.513 4.978 1.454 7.582l-.49-.036-.68-.05-.657-.047-.846-.061-.69-.05-.74-.054-1.243-.09.011-.572c.014-.703.022-1.405.029-2.108.003-.303.008-.607.015-.91.009-.438.013-.875.016-1.313l.011-.409c0-.853-.148-1.38-.811-2.054-.503-.345-.503-.345-.973-.581l.158.317c.68 1.541.655 3.04.617 4.65l-.01.814c-.008.657-.021 1.315-.035 1.972l-5.347-.388c-.22-.524-.272-.821-.267-1.359l.002-.444.006-.462.004-.468.012-1.143c.94.155 1.467.457 2.187.969l.243.388c0-1.046-.382-1.561-1.185-2.387-1.256-1.311-1.7-2.462-1.823-4.095-.026-.474-.026-.474-.151-.884-.594-.372-.594-.372-1.216-.582V14.6c-.48-.517-.916-.667-1.7-.775v-.388l-.423-.13c-.721-.338-1.08-.747-1.568-1.287l-.511-.555c-.402-.53-.565-.909-.658-1.517h.486l-.49-.512C9.347 7.29 7.472 4.774 7.472 2z" fill="#EF8026"/><path d="m20.352 29.524 1.154-.012.65-.007c.626.02.626.02 1.093.114.823.162 1.666.172 2.51.208l.55.025 1.334.06-.233.456c-.212.43-.37.838-.496 1.288l.395-.29c.721-.364 1.198-.337 2.035-.291-.702 1.967-1.752 3.457-3.888 4.652-.836.254-.836.254-1.458.388l-.244.387h1.702c-1.185 1.99-3.343 3.02-5.848 3.84-.731.2-1.456.303-2.218.4-2.414.329-4.49.995-6.345 2.282-.414.262-.414.262-.9.262l-.204.324L8.443 46c-.28-.715-.18-1.176.17-1.88.645-.91 1.593-1.64 2.504-2.384l-2.674-.194c-.204-.015-.352-.077-.607-.097-.256-.02-.71-.076-.972-.097-1.141-.164-1.638-.923-1.823-1.357-.048-.504-.048-.504-.03-1.09l.013-.59.017-.452c.121-.194.121-.194.121-.29 0-.098.098-.284.064-.2.592-1.538 2.844-2.176 4.465-2.925a7.227 7.227 0 0 1 1.912-.462v.388c-.428.245-.428.245-1.003.521-1.06.548-2.003 1.113-2.643 1.999 0 .71.23.954.73 1.55 1.835.186 3.694.016 5.491-.302.612-.09 1.179-.1 1.8-.085l.205-.426c.264-.51.563-.994.873-1.488 1.152-2.015 1.446-4.23 1.595-6.42.467.071.467.071.972.193.304.4.304.4.486.775l.243-1.163z" fill="#25207E"/><path d="m23.755 29.718 3.888.194-.486.97c-.087.256-.17.514-.243.774l.395-.29c.721-.364 1.198-.337 2.035-.291-.702 1.967-1.752 3.457-3.888 4.652-.836.254-.836.254-1.458.388l-.244.387h1.702c-1.185 1.99-3.343 3.02-5.848 3.84-.731.2-1.456.303-2.218.4-2.414.329-4.49.995-6.345 2.282-.414.262-.414.262-.9.262l-.204.324L8.443 46c-.28-.716-.182-1.178.174-1.882 1.113-1.584 2.749-2.768 4.874-3.359.831-.286 1.538-.696 2.272-1.115.458-.234.458-.234.943-.234l.172-.32c.401-.58.909-1.034 1.454-1.534 1.98-1.865 3.316-3.828 4.482-6.076.308-.59.625-1.175.94-1.762z" fill="#69AF33"/><path d="m17.679 15.956.729.194v.388l2.43.58v.389l.684.072c.774.121.774.121 1.503.51.894 1.713.819 3.557.775 5.378l-.01.809c-.008.65-.021 1.302-.035 1.953l-5.347-.388c-.22-.524-.272-.821-.267-1.359l.002-.444c.002-.153.005-.305.006-.462l.004-.468.012-1.143c.94.155 1.467.457 2.187.969l.243.388c0-1.046-.382-1.561-1.185-2.387-1.514-1.585-1.873-3.012-1.731-4.979z" fill="#7DD156"/><path d="M20.352 29.524h2.43c-1.26 4.019-3.554 7.724-7.777 10.273-.68.243-.68.243-1.215.388l.26-.257c3.077-3.153 4.273-6.273 4.6-10.21.468.072.468.072.973.194.304.4.304.4.486.775l.243-1.163z" fill="#7AD057"/><path d="m24.727 19.251 1.215.97.422.331c1.712 1.443 3.63 3.83 3.74 5.847l-.03.412-.491-.036-.68-.05-.657-.047-.846-.061-2.673-.194V19.25z" fill="#5A962C"/><path d="m23.755 29.718 3.888.194-.486.97c-.087.256-.17.514-.243.774l.395-.29c.721-.364 1.198-.337 2.035-.291-.702 1.967-1.752 3.457-3.888 4.652-.836.254-.836.254-1.458.388l-.244.387h1.702c-1.185 1.99-3.343 3.02-5.848 3.84-.731.2-1.456.303-2.218.4-2.414.329-4.49.995-6.345 2.282-.414.262-.135.294-.621.294-.067.107-.157.212-.226.322-.904.643-1.356 1.447-1.755 2.36-.28-.716-.182-1.178.174-1.882 1.113-1.584 2.749-2.768 4.874-3.359.831-.286 1.538-.696 2.272-1.115.458-.234.458-.234.943-.234l.172-.32c.401-.58.909-1.034 1.454-1.534 1.98-1.865 3.316-3.828 4.482-6.076.308-.59.625-1.175.94-1.762z" fill="#69AF33"/><path d="M22.782 29.718h.73c-.134 1.05-.46 1.9-1.003 2.86l-.232.411c-1.645 2.856-4.258 5.771-7.652 7.438l-.434.221c-.367.182-.748.345-1.13.506l-.486-.194c.434-.59.71-.769 1.52-1.034 3.563-1.17 5.688-4.413 7.16-7.069.415-.824.77-1.658 1.1-2.506.184-.44.184-.44.427-.633z" fill="#13242F"/><path d="M23.026 18.476c.693.265 1.201.495 1.7.969.263.628.275 1.088.276 1.749v.697c0 .24 0 .48-.002.728l.003.724-.001.698v.638a6.643 6.643 0 0 1-.275 1.55h-.972l-.015-.503c-.02-.625-.04-1.25-.063-1.875l-.025-.806c-.045-1.556-.145-3.055-.627-4.57z" fill="#0C152C"/><path d="M22.782 29.718h.73c-.135 1.01-.425 1.831-.927 2.774l-.37.713c-.408.588-.59.769-1.377.971.186-.928.577-1.784.972-2.665l.202-.458c.496-1.116.496-1.116.77-1.335z" fill="#0F1C2D"/><path d="m17.193 38.053.486.388c-.784.9-1.663 1.373-2.826 1.914l-.5.244c-.422.198-.856.379-1.292.555l-.486-.194c.51-.694 1.01-.872 1.932-1.151 1.034-.426 1.85-1.12 2.686-1.756z" fill="#2A4D31"/><path d="M7.471 2c1.533.178 2.41.387 3.403 1.357A43.906 43.906 0 0 1 8.2 2.58v1.357C7.47 3.356 7.57 2.81 7.471 2z" fill="#BD3A26"/><path d="M9.172 43.48c.502.085.502.085.973.194l-.44.4c-.59.63-.903 1.197-1.262 1.926-.267-.633-.224-.972.091-1.587l.204-.408c.191-.331.191-.331.434-.525z" fill="#367325"/><path d="M26.671 15.18h.486c.17.278.336.557.501.837l.282.47c.19.438.19.438-.054 1.02-1.191-1.178-1.191-1.178-1.291-1.927l.076-.4z" fill="#C08A27"/><path d="M16.463 9.172c1.047.303 1.96.714 2.917 1.163l-.243.387a10.78 10.78 0 0 1-2.674-1.163v-.387z" fill="#593328"/><path d="m14.52 39.797.728.388c-.353.167-.707.333-1.063.497l-.598.28-.526.192-.486-.194c.53-.667.974-.97 1.944-1.163z" fill="#3D6840"/><path d="M11.603 33.982v.388l-1.945.775-.486-.387c.314-.13.628-.26.942-.388l.53-.218c.473-.17.473-.17.959-.17z" fill="#1B1A65"/><path d="m11.603 9.366.972.387v.582h-.73l-.242.581-.243-.969h.486l-.243-.581z" fill="#BC5626"/><path d="M14.762 8.397c.896.096 1.362.213 1.944.775-.729.194-.729.194-1.382-.06l-.562-.328v-.387z" fill="#C86026"/><path d="M18.894 36.308c.197.315.197.315.243.776-.562.63-.562.63-1.215 1.163h-.486c.401-.694.919-1.308 1.458-1.939z" fill="#1D3531"/><path d="M19.137 10.529c.888.242 1.162.323 1.701.969-.972 0-.972 0-1.397-.267-.304-.315-.304-.315-.304-.702z" fill="#34232A"/></g><defs><linearGradient id="b" x1="125.5" y1="15" x2="125.5" y2="42.781" gradientUnits="userSpaceOnUse"><stop stop-color="#2CA729"/><stop offset=".965" stop-color="#12289D"/></linearGradient><clipPath id="a"><path fill="#fff" d="M0 0h214v48H0z"/></clipPath></defs></svg>